<svg xmlns="http://www.w3.org/2000/svg" width="1500" height="1500"><path d="M150 751v601h1202V150H150v601m866 108.483c0 .266-3.15 18.273-7 40.017-3.85 21.744-7.015 39.864-7.034 40.267-.019.403-1.932-2.867-4.25-7.267-3.269-6.203-5.244-8.687-8.792-11.058-9.371-6.263-22.955-8.862-38.581-7.382-38.138 3.614-65.729 28.668-76.472 69.44-2.062 7.829-2.365 11.212-2.323 26 .044 15.718.25 17.609 2.739 25.078 10.165 30.508 38.566 43.706 74.213 34.487 13.055-3.377 19.114-7.007 26.942-16.142 3.76-4.388 7.022-7.793 7.248-7.566.409.408-2.298 17.538-3.301 20.893-.479 1.6.53 1.75 11.794 1.749l12.317-.001 18.304-103.749c10.067-57.062 18.28-104.086 18.25-104.499-.058-.806-24.054-1.073-24.054-.267m-683.081 9.527c-21.629 3.661-40.878 13.793-55.55 29.238-11.985 12.618-20.245 26.617-26.204 44.413-5.273 15.749-6.635 24.87-6.621 44.339.016 20.642 1.845 29.743 8.942 44.5 12.097 25.15 34.501 38.687 66.514 40.189 11.07.519 14.102.27 26.5-2.173 19.462-3.835 27.326-3.347 38.551 2.389 4.443 2.271 10.403 5.695 13.245 7.609l5.168 3.48 8.256-8.212 8.255-8.213-3.238-3.348c-4.577-4.733-12.614-9.869-19.418-12.408-3.2-1.194-5.96-2.269-6.132-2.388-.172-.119 3.469-3.976 8.09-8.571 12.95-12.875 21.607-27.137 27.596-45.464 4.871-14.908 6.433-27.056 5.871-45.677-.583-19.306-2.449-27.593-9.391-41.691-3.808-7.735-6.168-10.98-12.827-17.639-15.029-15.029-33.035-21.457-59.526-21.252-7.425.057-15.561.453-18.081.879m217.708 11.883c-.895 4.892-1.627 9.167-1.627 9.5 0 .334 15.75.607 35 .607s35 .226 35 .503c0 .276-6.975 39.737-15.5 87.69-8.525 47.953-15.5 87.552-15.5 87.997 0 .446 5.351.81 11.892.81 11.502 0 11.909-.074 12.442-2.25.303-1.237 7.355-40.725 15.672-87.75s15.447-85.831 15.845-86.237c.397-.405 16.225-.855 35.173-1l34.451-.263 1.243-7c.684-3.85 1.485-8.013 1.782-9.25l.538-2.25H552.254l-1.627 8.893m-217.523 7.653c-35.626 7.729-62.038 48.885-62.229 96.969-.096 24.116 5.357 39.497 18.742 52.86 16.517 16.489 48.433 19.031 72.811 5.8 6.672-3.622 19.577-15.933 24.628-23.495 20.727-31.034 25.736-75.417 11.769-104.288-3.966-8.197-13.841-18.617-21.5-22.686-11.689-6.21-29.695-8.311-44.221-5.16M779.5 913.984c-10.848 1.238-19.154 3.705-29.5 8.764-8.054 3.937-10.87 6.023-18.5 13.698-12.786 12.863-20.309 26.511-25.109 45.554-2.612 10.359-2.66 35.582-.086 45 3.031 11.096 8.477 20.819 15.68 28 7.601 7.579 13.521 11.001 24.545 14.193 6.838 1.979 10.1 2.294 22.97 2.217 13.295-.08 16.018-.399 23.951-2.804 14.773-4.479 23.747-9.754 34.152-20.076 9.75-9.672 15.187-17.9 20.218-30.599 5.125-12.933 6.682-21.817 6.65-37.931-.034-16.405-1.983-25.54-7.777-36.438-4.046-7.611-12.926-17.125-19.843-21.261-11.101-6.637-31.172-10.162-47.351-8.317m343 .005c-28.354 2.703-51.546 18.254-64.592 43.311-10.697 20.546-14.362 43.541-10.329 64.805 5.837 30.767 25.647 47.694 58.026 49.579 43.354 2.525 76.442-22.305 88.632-66.509 1.726-6.259 2.13-10.627 2.19-23.675.085-18.691-.803-23.262-6.995-36-7.792-16.029-19.256-25.349-36.235-29.457-9.61-2.325-20.325-3.042-30.697-2.054m-346.286 19.012c-6.111 1.293-15.85 6.47-21.949 11.667-18.609 15.858-28.509 51.704-21.611 78.251 5.617 21.613 23.286 33.183 45.846 30.021 28.666-4.019 49.747-34.289 49.754-71.44.003-17.523-3.402-28.306-11.807-37.384-7.548-8.152-14.808-11.314-26.907-11.719-4.972-.166-10.969.106-13.326.604m167.832.541c-25.175 7.024-42.52 31.733-46.008 65.541-1.717 16.645.936 31.309 7.278 40.229 7.091 9.974 16.029 14.092 30.184 13.907 30.972-.404 51.465-24.075 58.066-67.071 3.825-24.916-3.338-43.243-19.819-50.706-7.728-3.5-20.939-4.345-29.701-1.9m173.066.039c-26.052 7.006-44.132 35.593-44.278 70.009-.122 28.934 11.878 46.111 34.447 49.308 31.365 4.441 57.894-21.78 62.792-62.063 1.65-13.565-.427-28.727-5.221-38.124-2.539-4.978-9.263-12.303-14.102-15.364-8.049-5.091-22.637-6.725-33.638-3.766m-664.939 52.784c-.645 3.501-1.173 6.883-1.173 7.515 0 .846 7.837 1.08 29.699.885l29.7-.265 1.239-6.5c.681-3.575 1.266-6.837 1.3-7.25.034-.413-13.36-.75-29.765-.75h-29.827l-1.173 6.365" fill="undefined" fill-rule="evenodd"/></svg>